<svg>

  <symbol id="svg-logotype" width="232" height="67" viewBox="0 0 232 67" xmlns="http://www.w3.org/2000/svg">
    <path fill-rule="evenodd" clip-rule="evenodd" d="M49.6641 32.7763H62.6957V35.2187H47.2003L48.3283 34.1031L49.6641 32.7763ZM12.0833 61.2709C12.113 61.6629 12.2318 61.9343 12.4989 62.2057C13.0036 62.6881 13.6566 62.8389 14.28 62.5374C14.7253 62.266 15.0815 61.8438 15.1112 61.3312C15.1112 59.6125 16.8923 59.3411 17.6641 60.2759C18.2577 60.9392 18.05 61.9343 17.7828 62.6881C17.4563 63.5927 16.8923 64.2561 16.1205 64.829C14.1316 66.0954 11.4006 65.8542 10.0054 63.8339C8.43212 64.1053 7.15568 63.9244 5.81987 62.9897C4.30595 61.8137 3.56383 60.0347 4.0091 58.0446C2.73266 56.8686 2.13897 55.5419 2.49518 53.7327C2.82172 52.4059 3.65289 51.4109 4.86996 50.8078C5.79018 50.446 7.03694 50.1746 7.86811 50.8681C8.93676 51.7727 8.4618 53.6121 6.68072 53.3708C6.1464 53.3407 5.73081 53.6422 5.46365 54.0945C5.22617 54.577 5.31523 55.0896 5.64176 55.5117C5.84955 55.7529 6.05735 55.8735 6.38388 55.964C9.32266 56.2655 9.11487 55.8132 7.21505 58.0747C6.9182 58.4968 6.79946 58.8587 6.85883 59.3713C7.00726 60.1553 7.57126 60.7583 8.34307 60.9995C9.02581 61.1805 9.53045 60.9694 10.0648 60.5171C12.2318 58.4064 11.8162 58.2556 12.0833 61.2709ZM18.7921 45.3803L28.8552 35.3695C30.1019 34.1634 31.9127 36.063 30.6659 37.2993L20.5138 47.3704C19.0592 48.8479 17.2485 46.9482 18.7921 45.3803ZM33.9313 25.3888L45.5083 13.9005C46.9035 12.4833 48.9814 14.6544 47.5565 16.0716L35.9201 27.6503C34.2281 29.3389 32.1502 27.1679 33.9313 25.3888ZM31.0222 23.3686L29.3598 24.9968C28.6177 25.7507 28.588 26.9869 29.3301 27.7106L31.3487 29.761L16.2986 44.6868L14.4581 50.2952L12.9739 51.7426C12.4396 52.1346 12.113 52.7678 12.113 53.4311C12.113 54.6373 13.0926 55.6022 14.28 55.6022C14.9034 55.6022 15.4674 55.3308 15.883 54.8483L17.5156 53.2502L23.0964 51.5617L38.1465 36.6359L39.3932 37.8722C40.1354 38.5959 41.3524 38.5959 42.0945 37.842L44.3803 35.5806L53.4638 26.595L57.679 22.4037C58.4211 21.6499 58.4508 20.4437 57.7087 19.6899L54.1168 16.1017L61.4786 8.80468L58.5695 5.81953L51.2077 13.1467L47.6456 9.55851C46.9035 8.80468 45.6864 8.80468 44.9443 9.55851L31.0222 23.3686ZM31.1409 20.8357C24.1056 20.3533 17.8718 17.5792 12.2911 13.2372C12.8255 12.7246 13.3301 12.212 13.8644 11.6692C19.2967 15.8906 25.4414 18.333 32.2986 18.6346V4.10081C33.0704 4.10081 33.8719 4.10081 34.6734 4.10081V17.3078L31.1409 20.8357ZM33.486 0C40.4916 0 46.9925 2.17102 52.3951 5.87984L50.7625 7.53825C45.8051 4.25157 39.8682 2.32178 33.486 2.32178C16.5657 2.32178 2.70298 15.9208 2.31708 32.7763H25.8273L23.3635 35.2187H2.34676C2.58424 39.3497 3.6232 43.2696 5.31523 46.8276C4.51374 46.5563 3.65289 46.5261 2.82172 46.6467C1.93117 44.5963 1.21874 42.4253 0.743788 40.194C-0.206122 35.8821 -0.235807 31.4797 0.595364 27.1679C3.56383 11.7295 17.1891 0 33.486 0ZM61.1521 14.6544C64.833 20.0216 67 26.5347 67 33.5C67 51.9536 51.9499 67 33.486 67C29.1223 67 24.729 66.0653 20.7809 64.4671C20.9591 63.653 21.0184 62.8389 20.87 62.0549C24.3728 63.6229 28.2021 64.5275 32.2986 64.6782L32.2689 44.8978L32.9517 44.2345C33.7235 44.144 34.0797 44.2646 34.6437 44.2043C36.3357 44.2646 38.0277 44.536 39.6901 44.928C45.538 46.3753 50.4953 49.7826 54.2653 54.4865C53.7606 55.1197 52.8998 55.4514 52.3951 56.0545C49.3376 52.1949 45.7458 49.3303 41.0259 47.7322C39.0667 47.099 37.0482 46.707 34.9702 46.5563H34.6437L34.6734 64.6481C51.2968 64.045 64.6846 50.2651 64.6846 33.5C64.6846 27.1377 62.7551 21.1976 59.4601 16.2525L61.1521 14.6544Z"/>
    <path d="M98.2415 20.8645L97.9621 21.1424L83 59.8577L83.3104 60.1356H92.0331L92.3125 59.8577L95.1373 52.0159H109.261L112.086 59.8577L112.365 60.1356H121.119L121.399 59.8577L106.436 21.1424L106.157 20.8645H98.2415ZM102.215 30.9601L106.716 44.1431H97.6827L102.215 30.9601ZM128.724 30.6823H129.283C131.549 28.9842 133.256 28.1506 135.491 28.1506C138.316 28.1506 140.303 29.8796 140.303 31.7937C140.303 34.6032 138.596 36.3013 136.361 36.3013H130.711L130.432 36.5791V43.8653L130.711 44.1431H136.919C140.582 44.1431 142.569 45.2546 142.569 48.6506C142.569 50.5957 140.582 52.8494 136.05 52.8494C133.256 52.8494 130.432 51.1514 128.166 49.2064H127.607L123.075 55.6589C125.9 59.0241 130.99 61 136.05 61C145.673 61 151.292 55.3811 151.292 48.6506C151.292 44.421 149.057 40.5 145.083 38.802C147.349 37.1348 149.057 34.3253 149.057 30.9601C149.057 24.7237 144.369 20 135.491 20C130.99 20 126.458 22.5317 124.223 25.3412L128.724 30.6823ZM156.662 20.8645L156.382 21.1424V59.8577L156.662 60.1356H163.988L164.298 59.8577V28.7064H181.216V59.8577L181.495 60.1356H188.821L189.131 59.8577V21.1424L188.821 20.8645H156.662ZM196.178 20.8645L195.899 21.1424V59.8577L196.178 60.1356H203.783L204.342 59.8577L224.115 34.3253V59.8577L224.395 60.1356H231.721L232 59.8577V21.1424L231.721 20.8645H224.115L223.557 21.1424L203.783 46.6747V21.1424L203.504 20.8645H196.178Z"/>
    <path d="M100.879 13.2902H98.9909V7.81153H97V6.17678H102.869V7.81153H100.879V13.2902Z"/>
    <path d="M110.09 12.3918C109.402 13.1085 108.488 13.4669 107.347 13.4669C106.207 13.4669 105.293 13.1085 104.604 12.3918C103.926 11.6652 103.587 10.7767 103.587 9.72611C103.587 8.67555 103.926 7.7919 104.604 7.07516C105.293 6.35842 106.207 6.00005 107.347 6.00005C108.488 6.00005 109.402 6.35842 110.09 7.07516C110.779 7.7919 111.123 8.67555 111.123 9.72611C111.123 10.7767 110.779 11.6652 110.09 12.3918ZM106.02 11.2136C106.345 11.6063 106.787 11.8027 107.347 11.8027C107.908 11.8027 108.35 11.6063 108.675 11.2136C109.009 10.811 109.176 10.3152 109.176 9.72611C109.176 9.14683 109.009 8.66082 108.675 8.26809C108.35 7.86553 107.908 7.66426 107.347 7.66426C106.787 7.66426 106.345 7.86553 106.02 8.26809C105.696 8.66082 105.533 9.14683 105.533 9.72611C105.533 10.3152 105.696 10.811 106.02 11.2136Z"/>
    <path d="M116.582 13.4669C115.688 13.4669 114.955 13.1036 114.385 12.3771V16H112.512V6.17678H114.385V7.07516C114.945 6.35842 115.678 6.00005 116.582 6.00005C117.516 6.00005 118.273 6.33387 118.854 7.00152C119.443 7.65935 119.738 8.56755 119.738 9.72611C119.738 10.8847 119.443 11.7978 118.854 12.4654C118.273 13.1331 117.516 13.4669 116.582 13.4669ZM115.993 11.8027C116.533 11.8027 116.966 11.6112 117.29 11.2283C117.625 10.8454 117.792 10.3447 117.792 9.72611C117.792 9.11738 117.625 8.62155 117.29 8.23863C116.966 7.85572 116.533 7.66426 115.993 7.66426C115.688 7.66426 115.383 7.7428 115.078 7.8999C114.773 8.05699 114.542 8.24845 114.385 8.47427V10.9927C114.542 11.2185 114.773 11.41 115.078 11.5671C115.393 11.7241 115.698 11.8027 115.993 11.8027Z"/>
    <path d="M126.611 6.17678V7.81153H122.983V13.2902H121.11V6.17678H126.611Z"/>
    <path d="M133.853 12.3918C133.165 13.1085 132.251 13.4669 131.11 13.4669C129.97 13.4669 129.055 13.1085 128.367 12.3918C127.689 11.6652 127.35 10.7767 127.35 9.72611C127.35 8.67555 127.689 7.7919 128.367 7.07516C129.055 6.35842 129.97 6.00005 131.11 6.00005C132.251 6.00005 133.165 6.35842 133.853 7.07516C134.541 7.7919 134.886 8.67555 134.886 9.72611C134.886 10.7767 134.541 11.6652 133.853 12.3918ZM129.783 11.2136C130.107 11.6063 130.55 11.8027 131.11 11.8027C131.671 11.8027 132.113 11.6063 132.437 11.2136C132.772 10.811 132.939 10.3152 132.939 9.72611C132.939 9.14683 132.772 8.66082 132.437 8.26809C132.113 7.86553 131.671 7.66426 131.11 7.66426C130.55 7.66426 130.107 7.86553 129.783 8.26809C129.458 8.66082 129.296 9.14683 129.296 9.72611C129.296 10.3152 129.458 10.811 129.783 11.2136Z"/>
    <path d="M140.92 13.2902H136.275V6.17678H140.788C141.476 6.17678 142.012 6.35351 142.395 6.70697C142.779 7.06043 142.97 7.49244 142.97 8.00299C142.97 8.41536 142.857 8.76391 142.631 9.04865C142.405 9.33338 142.115 9.52484 141.761 9.62302C142.154 9.71139 142.479 9.91757 142.734 10.2416C142.99 10.5656 143.118 10.9387 143.118 11.3609C143.118 11.9205 142.921 12.382 142.528 12.7453C142.144 13.1085 141.609 13.2902 140.92 13.2902ZM140.463 11.7585C140.689 11.7585 140.866 11.6996 140.994 11.5818C141.132 11.464 141.201 11.302 141.201 11.0958C141.201 10.9092 141.132 10.7521 140.994 10.6245C140.866 10.4969 140.689 10.433 140.463 10.433H138.148V11.7585H140.463ZM140.404 8.90137C140.601 8.90137 140.758 8.84737 140.876 8.73937C141.004 8.62155 141.068 8.47918 141.068 8.31227C141.068 8.13554 141.009 7.99317 140.891 7.88517C140.773 7.76735 140.611 7.70844 140.404 7.70844H138.148V8.90137H140.404Z"/>
    <path d="M151.066 13.2902H149.193V12.5538C148.682 13.1625 147.929 13.4669 146.936 13.4669C146.297 13.4669 145.722 13.2607 145.211 12.8484C144.71 12.4262 144.459 11.8469 144.459 11.1105C144.459 10.3447 144.705 9.7703 145.196 9.38738C145.698 9.00446 146.278 8.81301 146.936 8.81301C147.949 8.81301 148.701 9.10265 149.193 9.68193V8.72464C149.193 8.36136 149.05 8.07172 148.765 7.85572C148.48 7.63971 148.101 7.53171 147.63 7.53171C146.853 7.53171 146.16 7.81153 145.55 8.37118L144.842 7.11934C145.688 6.37314 146.725 6.00005 147.954 6.00005C148.868 6.00005 149.616 6.21114 150.196 6.63333C150.776 7.05552 151.066 7.7428 151.066 8.69519V13.2902ZM147.689 12.2003C148.387 12.2003 148.888 11.9942 149.193 11.5818V10.6981C148.888 10.2858 148.387 10.0796 147.689 10.0796C147.305 10.0796 146.986 10.1778 146.73 10.3741C146.474 10.5607 146.347 10.8209 146.347 11.1547C146.347 11.4787 146.474 11.734 146.73 11.9205C146.986 12.1071 147.305 12.2003 147.689 12.2003Z"/>
    <path d="M154.811 13.2902H152.687L154.339 10.7129C153.897 10.6049 153.523 10.3594 153.218 9.97648C152.914 9.59357 152.761 9.10265 152.761 8.50373C152.761 7.8459 152.982 7.29607 153.425 6.85424C153.867 6.4026 154.467 6.17678 155.224 6.17678H159.545V13.2902H157.672V10.8454H156.212L154.811 13.2902ZM155.519 9.28429H157.672V7.75262H155.519C155.263 7.75262 155.057 7.82135 154.9 7.95881C154.742 8.09627 154.664 8.27791 154.664 8.50373C154.664 8.73937 154.737 8.93083 154.885 9.0781C155.042 9.21556 155.253 9.28429 155.519 9.28429Z"/>
    <path d="M172.111 13.2902H169.766L167.879 10.5509L167.023 11.464V13.2902H165.15V6.17678H167.023V9.3432L169.722 6.17678H172.023L169.206 9.40211L172.111 13.2902Z"/>
    <path d="M179.003 12.3918C178.314 13.1085 177.4 13.4669 176.26 13.4669C175.119 13.4669 174.205 13.1085 173.517 12.3918C172.838 11.6652 172.499 10.7767 172.499 9.72611C172.499 8.67555 172.838 7.7919 173.517 7.07516C174.205 6.35842 175.119 6.00005 176.26 6.00005C177.4 6.00005 178.314 6.35842 179.003 7.07516C179.691 7.7919 180.035 8.67555 180.035 9.72611C180.035 10.7767 179.691 11.6652 179.003 12.3918ZM174.932 11.2136C175.257 11.6063 175.699 11.8027 176.26 11.8027C176.82 11.8027 177.262 11.6063 177.587 11.2136C177.921 10.811 178.088 10.3152 178.088 9.72611C178.088 9.14683 177.921 8.66082 177.587 8.26809C177.262 7.86553 176.82 7.66426 176.26 7.66426C175.699 7.66426 175.257 7.86553 174.932 8.26809C174.608 8.66082 174.446 9.14683 174.446 9.72611C174.446 10.3152 174.608 10.811 174.932 11.2136Z"/>
    <path d="M189.845 13.2902H187.972V8.66573L186.07 13.2902H185.214L183.297 8.66573V13.2902H181.424V6.17678H183.887L185.642 10.4183L187.368 6.17678H189.845V13.2902Z"/>
    <path d="M198.403 13.2902H196.53V7.81153H193.58V13.2902H191.707V6.17678H198.403V13.2902Z"/>
    <path d="M206.411 13.2902H204.539V12.5538C204.027 13.1625 203.275 13.4669 202.282 13.4669C201.643 13.4669 201.068 13.2607 200.557 12.8484C200.055 12.4262 199.805 11.8469 199.805 11.1105C199.805 10.3447 200.05 9.7703 200.542 9.38738C201.043 9.00446 201.624 8.81301 202.282 8.81301C203.295 8.81301 204.047 9.10265 204.539 9.68193V8.72464C204.539 8.36136 204.396 8.07172 204.111 7.85572C203.826 7.63971 203.447 7.53171 202.975 7.53171C202.199 7.53171 201.506 7.81153 200.896 8.37118L200.188 7.11934C201.034 6.37314 202.071 6.00005 203.3 6.00005C204.214 6.00005 204.961 6.21114 205.541 6.63333C206.121 7.05552 206.411 7.7428 206.411 8.69519V13.2902ZM203.034 12.2003C203.732 12.2003 204.234 11.9942 204.539 11.5818V10.6981C204.234 10.2858 203.732 10.0796 203.034 10.0796C202.651 10.0796 202.331 10.1778 202.076 10.3741C201.82 10.5607 201.692 10.8209 201.692 11.1547C201.692 11.4787 201.82 11.734 202.076 11.9205C202.331 12.1071 202.651 12.2003 203.034 12.2003Z"/>
    <path d="M210.142 13.2902H208.269V6.17678H210.142V8.81301H213.092V6.17678H214.964V13.2902H213.092V10.4478H210.142V13.2902Z"/>
    <path d="M218.623 13.2902H216.824V6.17678H218.697V10.4772L221.631 6.17678H223.519V13.2902H221.646V8.82773L218.623 13.2902Z"/>
    <path d="M227.266 13.2902H225.142L226.794 10.7129C226.352 10.6049 225.978 10.3594 225.673 9.97648C225.369 9.59357 225.216 9.10265 225.216 8.50373C225.216 7.8459 225.437 7.29607 225.88 6.85424C226.322 6.4026 226.922 6.17678 227.679 6.17678H232V13.2902H230.127V10.8454H228.667L227.266 13.2902ZM227.974 9.28429H230.127V7.75262H227.974C227.718 7.75262 227.512 7.82135 227.355 7.95881C227.197 8.09627 227.119 8.27791 227.119 8.50373C227.119 8.73937 227.192 8.93083 227.34 9.0781C227.497 9.21556 227.709 9.28429 227.974 9.28429Z"/>
  </symbol>

  <symbol id="svg-letsrock" width="67" height="14" viewBox="0 0 67 14" xmlns="http://www.w3.org/2000/svg">
    <path fill-rule="evenodd" clip-rule="evenodd" d="M13.649 11.0942C14.3765 8.89277 15.0694 7.43253 15.8085 5.31961C16.0741 4.58949 16.2935 4.18018 16.2242 3.75981C16.0971 3.085 15.6237 2.89694 15.1618 3.47218C15.0925 3.58281 15.0117 3.67131 14.9539 3.77087C14.6768 4.21337 14.4343 4.67799 14.1109 5.22005C13.1409 6.8241 12.4134 8.93702 11.9053 9.65608C11.2471 10.6517 10.3348 10.4636 10.0576 9.45695C9.31858 9.97689 8.4294 9.42377 8.46404 8.51665C8.48714 7.70909 8.70655 6.68029 8.82202 5.8506C8.97215 4.83286 9.27239 2.24426 9.24929 0.850392C9.2262 0.673393 9.21465 0.551706 9.18001 0.418957C9.00679 -0.0567265 8.49869 -0.112039 8.07142 0.175584C7.82891 0.330458 7.62105 0.673393 7.51712 1.11589C7.33236 1.75751 7.27462 2.45444 7.18223 3.15137C7.1245 3.616 6.3277 7.7644 6.14293 8.09628C5.56554 9.22464 3.53313 7.33297 2.02036 6.90153C0.345928 6.45904 -0.693375 7.28872 0.542241 7.99671C1.36214 8.48346 4.09897 10.53 4.78029 11.2269C4.95351 11.3929 4.98815 11.4039 5.14982 11.5477C5.39232 11.7801 5.54244 11.9902 5.80804 12.2115C7.33236 13.55 10.023 14.1806 12.0554 13.1739C12.4711 12.9637 12.5635 12.8752 12.8522 12.5876C13.3372 12.1119 13.4411 11.6916 13.649 11.0942Z"/>
    <path fill-rule="evenodd" clip-rule="evenodd" d="M42.5415 7.94154L43.2113 4.833C44.1813 4.79981 45.7865 4.5675 45.082 6.60299C44.5739 8.05216 43.6155 7.96366 42.5415 7.94154ZM39.0541 13.6608H41.2597L42.172 9.6009C43.3845 9.45709 43.4192 10.2646 43.6039 11.1386L44.0889 13.6608H46.3292L45.7865 11.0833C45.6594 10.4527 45.3592 9.94384 45.1167 9.6894C44.9666 9.54559 44.8395 9.47921 44.6663 9.34647C45.0243 9.13628 45.3014 9.04778 45.5786 8.88184C46.029 8.62741 46.4562 8.27341 46.8835 7.55435C47.4031 6.68042 47.6687 5.34187 47.1491 4.35731C46.6294 3.33957 45.7634 3.14045 44.239 3.14045C42.8418 3.14045 41.456 3.11832 40.0587 3.14045L39.7238 4.79981H40.9133L39.0541 13.6608Z"/>
    <path fill-rule="evenodd" clip-rule="evenodd" d="M59.771 13.6607H61.7341L62.427 10.7181C63.27 10.6517 63.3393 11.0721 63.524 11.9349L63.882 13.6717L65.9144 13.6496L65.6373 12.3221C65.3371 11.0721 65.4525 10.8397 64.6904 10.0543L66.9999 6.83515L64.8982 6.85728C64.3786 7.53208 63.9051 8.37283 63.4432 9.06976H62.785C62.7503 8.48345 63.8705 4.31292 64.0321 3.15137H60.7872L60.4754 4.81073H61.6533C61.4685 6.22672 59.7941 12.9416 59.771 13.6607Z"/>
    <path fill-rule="evenodd" clip-rule="evenodd" d="M22.714 10.9282H20.8894L20.6469 11.9792H19.1688L21.0857 3.15137L17.5636 3.19562L17.1595 4.82179H18.4413L16.4781 13.6607L22.1135 13.6385"/>
    <path fill-rule="evenodd" clip-rule="evenodd" d="M48.9854 11.5697C48.8583 11.1383 48.9276 10.6626 49.1008 10.0321C49.2856 9.35724 49.8053 8.22888 50.6829 8.5165C51.3758 8.71562 51.4104 10.6737 50.6829 11.6914C50.1286 12.499 49.2741 12.6207 48.9854 11.5697ZM48.3733 13.8265C48.5465 13.8928 48.7429 13.9371 49.0085 13.9703C50.8215 14.1473 51.7337 13.5057 52.288 12.8087C52.7961 12.1782 52.9578 11.7025 53.1657 10.9392C53.4659 9.8993 53.6276 8.70456 52.9463 7.80851C52.2187 6.85714 50.7406 6.55845 49.3433 7.11157C48.2463 7.55407 47.4379 8.45013 47.0338 9.66699C46.8259 10.2975 46.6989 11.0277 46.7682 11.7246C46.8606 12.7202 47.3687 13.4614 48.3733 13.8265Z"/>
    <path fill-rule="evenodd" clip-rule="evenodd" d="M25.4738 10.2093C25.5893 9.47915 25.9588 8.64947 26.6517 8.51672C27.206 8.40609 27.4254 8.79328 27.3099 9.24684C27.2637 9.44596 27.1829 9.64509 26.9981 9.82208C26.6517 10.1429 26.1089 10.2314 25.4738 10.2093ZM23.8455 13.2736C25.0234 14.6342 27.333 13.705 28.3607 13.3621L28.0259 11.935C27.1136 12.2337 25.774 12.8864 25.416 11.5589C26.9288 11.6806 28.2453 11.2159 28.9959 9.96589C30.8666 6.82417 26.2128 5.6958 24.2266 8.21803C23.5338 9.09196 23.1873 10.0212 23.1642 11.2381C23.1642 11.227 23.0603 12.3554 23.8455 13.2736Z"/>
    <path fill-rule="evenodd" clip-rule="evenodd" d="M34.1465 9.74467C34.4468 10.873 36.1559 11.0279 36.3637 11.5478C36.7563 12.4992 34.9318 12.6209 33.8809 11.8133L33.1765 13.2404C33.7193 13.9041 35.3937 14.0811 36.4561 13.871C37.7379 13.6165 38.4654 12.6209 38.5232 11.404C38.5578 10.8509 38.4308 10.5633 37.9227 10.1208C37.4723 9.74467 36.9527 9.63405 36.5369 9.36855C36.3175 9.22474 36.2367 9.19155 36.2598 8.92606C36.2944 8.43931 36.7101 8.46143 37.3222 8.48356L37.1952 9.21368L38.6271 9.19155L39.5625 6.43701L37.8072 6.45914L37.7148 6.86845C36.8372 6.81313 35.821 6.79101 35.1281 7.31094C35.1281 7.32201 33.777 8.37293 34.1465 9.74467Z"/>
    <path fill-rule="evenodd" clip-rule="evenodd" d="M54.7013 13.4283C54.8861 13.5942 55.1633 13.7491 55.579 13.8597C56.0409 14.0035 56.5836 14.0257 57.1033 13.9482C57.4382 13.915 57.6807 13.8376 57.9001 13.7823C58.1772 13.7159 58.4082 13.6164 58.6853 13.5168C58.8008 13.4615 58.9278 13.4283 59.0549 13.3509L58.72 11.9349C58.0849 12.134 55.8099 13.2402 56.0524 10.718C56.2026 9.26882 56.6645 8.30639 58.3505 8.50552L58.2234 9.20245L59.6438 9.18032L60.5907 6.42578H58.8586L58.7315 6.91253C56.7338 6.7134 55.6598 7.25546 54.8168 8.33958C54.124 9.21351 53.8122 10.4636 53.9045 11.7357C53.9507 12.3774 54.1701 12.9969 54.7013 13.4283Z"/>
    <path fill-rule="evenodd" clip-rule="evenodd" d="M29.6079 13.6609H31.5364L32.6681 8.46156L33.7536 8.48368L34.2963 6.86857H33.0492L33.4764 4.82202H31.7558L31.1207 6.86857H30.0929L29.758 8.46156H30.6357L29.6079 13.6609Z"/>
    <path fill-rule="evenodd" clip-rule="evenodd" d="M10.1384 8.66037C10.5079 7.89706 10.7735 6.76869 10.8659 6.07176C10.9583 5.39695 10.7504 5.10933 10.0113 4.9987C9.80347 4.96552 9.59561 4.97658 9.41084 5.12039C9.1337 5.31951 9.16834 5.67351 9.05286 6.25982C8.8681 7.47669 8.47547 8.78205 9.01822 9.20242C9.60716 9.65598 9.94204 9.10286 10.1384 8.66037Z"/>
    <path fill-rule="evenodd" clip-rule="evenodd" d="M11.7088 9.36849C12.3093 8.41712 13.0484 6.75776 12.6788 6.20464C12.367 5.76214 11.4894 5.52983 11.2238 6.23782C11.0159 6.79094 10.8312 7.65381 10.681 8.1295C10.5078 8.64943 10.2538 9.34636 10.4732 9.70036C10.8658 10.353 11.4432 9.76673 11.7088 9.36849Z"/>
    <path fill-rule="evenodd" clip-rule="evenodd" d="M34.2386 5.90591H35.6359L36.6406 3.15137H34.8391L34.2386 5.90591Z"/>
  </symbol>



  <symbol id="svg-icons-protect" width="18" height="20" viewBox="0 0 18 20" xmlns="http://www.w3.org/2000/svg">
    <path d="M9 16V4L14 7C14 7 14 10.875 9 16Z"/>
    <path fill-rule="evenodd" clip-rule="evenodd" d="M9 19.9996C8.81263 19.9996 8.62901 19.9471 8.47 19.8479C0.0970001 14.6139 0 6.34995 0 5.99995C8.08239e-05 5.83047 0.0431468 5.66379 0.125169 5.51548C0.207192 5.36718 0.32549 5.2421 0.469 5.15195L8.469 0.151949C8.62804 0.0524161 8.81188 -0.000366211 8.9995 -0.000366211C9.18712 -0.000366211 9.37096 0.0524161 9.53 0.151949L17.53 5.15195C17.6738 5.24184 17.7924 5.36684 17.8746 5.51518C17.9569 5.66352 18 5.83034 18 5.99995C18 6.34995 17.903 14.6139 9.53 19.8479C9.37099 19.9471 9.18737 19.9996 9 19.9996ZM15.97 6.53495L9 2.17995L2.03 6.53495C2.185 8.28295 3.138 13.8609 9 17.8079C14.861 13.8619 15.815 8.28695 15.97 6.53495Z"/>
  </symbol>

  <symbol id="svg-icons-genui" width="18" height="22" viewBox="0 0 18 22" xmlns="http://www.w3.org/2000/svg">
    <path d="M13.7071 8.70711C14.0976 8.31658 14.0976 7.68342 13.7071 7.29289C13.3166 6.90237 12.6834 6.90237 12.2929 7.29289L8 11.5858L5.70711 9.29289C5.31658 8.90237 4.68342 8.90237 4.29289 9.29289C3.90237 9.68342 3.90237 10.3166 4.29289 10.7071L7.29289 13.7071C7.68342 14.0976 8.31658 14.0976 8.70711 13.7071L13.7071 8.70711Z"/>
    <path fill-rule="evenodd" clip-rule="evenodd" d="M9.35112 0.0636709C9.12474 -0.0212236 8.87526 -0.0212236 8.64888 0.0636709L0.648877 3.06367C0.258573 3.21003 0 3.58316 0 4V11C0 14.4464 2.28175 17.2003 4.3415 19.0026C5.39238 19.9221 6.43854 20.6408 7.22 21.1292C7.61177 21.3741 7.93968 21.5627 8.17193 21.6913C8.28813 21.7556 8.38057 21.805 8.44532 21.839C8.4777 21.856 8.50317 21.8692 8.52124 21.8784L8.54274 21.8894L8.54922 21.8926L8.55217 21.8941C8.8337 22.0349 9.16569 22.0352 9.44721 21.8944L9 21C9.44721 21.8944 9.44863 21.8937 9.44863 21.8937L9.45078 21.8926L9.45726 21.8894L9.47876 21.8784C9.49683 21.8692 9.5223 21.856 9.55468 21.839C9.61943 21.805 9.71187 21.7556 9.82807 21.6913C10.0603 21.5627 10.3882 21.3741 10.78 21.1292C11.5615 20.6408 12.6076 19.9221 13.6585 19.0026C15.7183 17.2003 18 14.4464 18 11V4C18 3.58316 17.7414 3.21003 17.3511 3.06367L9.35112 0.0636709ZM9 21L8.55217 21.8941C8.55217 21.8941 8.55279 21.8944 9 21ZM9.72 19.4333C9.4367 19.6103 9.19164 19.7541 9 19.8628C8.80836 19.7541 8.5633 19.6103 8.28 19.4333C7.56146 18.9842 6.60762 18.3279 5.6585 17.4974C3.71825 15.7997 2 13.5536 2 11V4.693L9 2.068L16 4.693V11C16 13.5536 14.2817 15.7997 12.3415 17.4974C11.3924 18.3279 10.4385 18.9842 9.72 19.4333Z"/>
  </symbol>

  <symbol id="svg-icons-service" width="16" height="16" viewBox="0 0 16 16" xmlns="http://www.w3.org/2000/svg">
    <path fill-rule="evenodd" clip-rule="evenodd" d="M14.4177 8.4L13.6957 7.983L14.4177 7.603C14.8763 7.33812 15.2111 6.90217 15.3487 6.39075C15.4863 5.87934 15.4155 5.33424 15.1517 4.875L14.1517 3.135C14.0199 2.90614 13.8443 2.70552 13.6349 2.54465C13.4255 2.38379 13.1863 2.26584 12.9312 2.19756C12.6761 2.12928 12.4101 2.11201 12.1483 2.14675C11.8866 2.18149 11.6342 2.26755 11.4057 2.4L10.6857 2.816L10.7057 2C10.7057 1.46957 10.495 0.960858 10.1199 0.585785C9.74483 0.210712 9.23615 0 8.70572 0H6.70572C6.17528 0 5.6666 0.210712 5.29153 0.585785C4.91646 0.960858 4.70572 1.46957 4.70572 2V2.826L4.0057 2.399C3.77757 2.26722 3.5257 2.1817 3.26449 2.14732C3.00328 2.11294 2.73783 2.13038 2.48337 2.19864C2.2289 2.2669 1.9904 2.38464 1.78146 2.54514C1.57253 2.70563 1.39727 2.90574 1.26571 3.134L0.265714 4.874C0.00194329 5.33324 -0.0689084 5.87834 0.0686925 6.38976C0.206293 6.90117 0.541121 7.33712 0.999723 7.602L1.70773 8.011L0.999723 8.399C0.541121 8.66388 0.206293 9.09983 0.0686925 9.61124C-0.0689084 10.1227 0.00194329 10.6678 0.265714 11.127L1.26571 12.867C1.39727 13.0953 1.57253 13.2954 1.78146 13.4559C1.9904 13.6164 2.2289 13.7341 2.48337 13.8024C2.73783 13.8706 3.00328 13.8881 3.26449 13.8537C3.5257 13.8193 3.77757 13.7338 4.0057 13.602L4.72574 13.186L4.70572 14C4.70572 14.5304 4.91646 15.0391 5.29153 15.4142C5.6666 15.7893 6.17528 16 6.70572 16H8.70572C9.23615 16 9.74483 15.7893 10.1199 15.4142C10.495 15.0391 10.7057 14.5304 10.7057 14V13.174L11.4057 13.601C11.8667 13.8669 12.4144 13.9389 12.9284 13.801C13.4424 13.6632 13.8806 13.3269 14.1467 12.866L15.1467 11.126C15.4103 10.6675 15.4816 10.1234 15.3449 9.61252C15.2083 9.10166 14.8749 8.6657 14.4177 8.4ZM12.6917 9.714L13.4147 10.131L12.4147 11.871L11.6947 11.455C11.3952 11.2817 11.0552 11.1905 10.7092 11.1905C10.3632 11.1905 10.0233 11.2817 9.72372 11.455L9.69571 11.471C9.39581 11.6422 9.14649 11.8895 8.97299 12.1881C8.79948 12.4866 8.70798 12.8257 8.70773 13.171V14H6.70773V13.174C6.70717 12.8289 6.61563 12.49 6.44235 12.1916C6.26907 11.8931 6.02017 11.6456 5.72073 11.474L5.69174 11.458C5.39228 11.2845 5.05229 11.1932 4.7062 11.1932C4.36012 11.1932 4.02019 11.2845 3.72073 11.458L3.0007 11.874L2.0007 10.134L2.70572 9.721C3.00788 9.54663 3.25879 9.29579 3.43326 8.99368C3.60772 8.69158 3.69955 8.34886 3.69955 8C3.69955 7.65114 3.60772 7.30842 3.43326 7.00632C3.25879 6.70421 3.00788 6.45337 2.70572 6.279L1.99673 5.87L2.99673 4.13L3.7167 4.546C4.0162 4.71938 4.35617 4.81068 4.70224 4.81068C5.0483 4.81068 5.38821 4.71938 5.68771 4.546L5.71573 4.53C6.01562 4.35885 6.26494 4.11147 6.43844 3.81293C6.61195 3.51439 6.70345 3.1753 6.7037 2.83V2H8.7037V2.826C8.70426 3.17123 8.79591 3.51021 8.96939 3.8087C9.14286 4.10719 9.39205 4.35462 9.69174 4.526L9.71969 4.542C10.0191 4.71558 10.3591 4.807 10.7052 4.807C11.0513 4.807 11.3913 4.71558 11.6907 4.542L12.4107 4.126L13.4107 5.866L12.6877 6.283C12.3894 6.45532 12.1419 6.70318 11.9698 7.00161C11.7978 7.30004 11.7074 7.63853 11.7077 7.983V8.007C11.7064 8.35294 11.7968 8.69305 11.9696 8.99272C12.1425 9.29239 12.3916 9.54091 12.6917 9.713V9.714ZM7.70572 6C7.31015 6 6.92347 6.1173 6.59457 6.33706C6.26567 6.55682 6.00931 6.86918 5.85794 7.23463C5.70656 7.60009 5.667 8.00222 5.74417 8.39018C5.82134 8.77814 6.01183 9.13451 6.29153 9.41422C6.57124 9.69392 6.92756 9.8844 7.31552 9.96157C7.70348 10.0387 8.10565 9.99913 8.4711 9.84776C8.83655 9.69638 9.14892 9.44004 9.36868 9.11114C9.58844 8.78224 9.70572 8.39556 9.70572 8C9.70572 7.46957 9.49497 6.96086 9.1199 6.58578C8.74483 6.21071 8.23615 6 7.70572 6Z"/>
  </symbol>

  <symbol id="svg-icons-search" width="19" height="19" viewBox="0 0 19 19" xmlns="http://www.w3.org/2000/svg">
    <path d="M8 16C9.77498 15.9996 11.4988 15.4054 12.897 14.312L17.293 18.708L18.707 17.294L14.311 12.898C15.405 11.4997 15.9996 9.77544 16 8C16 3.589 12.411 0 8 0C3.589 0 0 3.589 0 8C0 12.411 3.589 16 8 16ZM8 2C11.309 2 14 4.691 14 8C14 11.309 11.309 14 8 14C4.691 14 2 11.309 2 8C2 4.691 4.691 2 8 2Z"/>
  </symbol>

  <symbol id="svg-icons-list" width="18" height="22" viewBox="0 0 18 22" xmlns="http://www.w3.org/2000/svg">
    <path d="M5 11C4.44772 11 4 11.4477 4 12C4 12.5523 4.44772 13 5 13H13C13.5523 13 14 12.5523 14 12C14 11.4477 13.5523 11 13 11H5Z"/>
    <path d="M4 16C4 15.4477 4.44772 15 5 15H13C13.5523 15 14 15.4477 14 16C14 16.5523 13.5523 17 13 17H5C4.44772 17 4 16.5523 4 16Z" />
    <path d="M5 7C4.44772 7 4 7.44772 4 8C4 8.55229 4.44772 9 5 9H7C7.55228 9 8 8.55229 8 8C8 7.44772 7.55228 7 7 7H5Z" />
    <path fill-rule="evenodd" clip-rule="evenodd" d="M0.87868 0.87868C1.44129 0.31607 2.20435 0 3 0H11C11.2652 0 11.5196 0.105357 11.7071 0.292893L17.7071 6.29289C17.8946 6.48043 18 6.73478 18 7V19C18 19.7957 17.6839 20.5587 17.1213 21.1213C16.5587 21.6839 15.7957 22 15 22H3C2.20435 22 1.44129 21.6839 0.87868 21.1213C0.31607 20.5587 0 19.7957 0 19V3C0 2.20435 0.31607 1.44129 0.87868 0.87868ZM3 2H10V7C10 7.55228 10.4477 8 11 8H16V19C16 19.2652 15.8946 19.5196 15.7071 19.7071C15.5196 19.8946 15.2652 20 15 20H3C2.73478 20 2.48043 19.8946 2.29289 19.7071C2.10536 19.5196 2 19.2652 2 19V3C2 2.73478 2.10536 2.48043 2.29289 2.29289C2.48043 2.10536 2.73478 2 3 2ZM12 3.41421L14.5858 6H12V3.41421Z" />
  </symbol>

  <symbol id="svg-icons-tel" width="16" height="16" viewBox="0 0 16 16" xmlns="http://www.w3.org/2000/svg">
    <path d="M15.5379 12.5284C14.9256 11.916 13.4553 10.9955 12.7305 10.6497C11.8892 10.2457 11.581 10.254 10.9853 10.683C10.4897 11.0413 10.169 11.3745 9.59833 11.2495C9.02771 11.1287 7.90311 10.2748 6.81184 9.18762C5.72056 8.09626 4.87087 6.97158 4.75008 6.4009C4.62929 5.82607 4.9625 5.50949 5.31654 5.01379C5.74555 4.41813 5.75805 4.10988 5.34986 3.26845C5.00415 2.53949 4.08781 1.07323 3.47137 0.4609C2.85909 -0.151428 2.72164 -0.018132 2.38426 0.102667C2.38426 0.102667 1.88444 0.302611 1.38878 0.631686C0.776503 1.03991 0.43496 1.38148 0.19338 1.89383C-0.0440351 2.40619 -0.318936 3.36009 1.08056 5.85106C2.20932 7.863 3.31726 9.38757 4.9625 11.0288L4.96667 11.0329L4.97083 11.0371C6.61607 12.6825 8.13636 13.7905 10.1481 14.9194C12.6389 16.319 13.5927 16.044 14.1051 15.8066C14.6174 15.5692 14.9589 15.2276 15.3671 14.6111C15.6961 14.1154 15.8961 13.6156 15.8961 13.6156C16.0169 13.2781 16.1543 13.1407 15.5379 12.5284Z"/>
  </symbol>

  <symbol id="svg-icons-refresh" width="22" height="18" viewBox="0 0 22 18" xmlns="http://www.w3.org/2000/svg">
    <path fill-rule="evenodd" clip-rule="evenodd" d="M19.7218 12C18.4467 15.4956 15.0062 18 10.962 18C7.96946 18 5.30742 16.6287 3.60872 14.4992C3.01191 13.751 2.53401 12.9093 2.20246 12.0005C2.05137 11.5864 1.93067 11.1584 1.84297 10.7189C1.82167 10.6122 1.80232 10.5049 1.78495 10.3969C1.77633 10.3433 1.76362 10.2857 1.76362 10.2857H0L2.56771 7.71429L5.32096 10.2857H3.55839C4.18221 13.6928 7.25962 16.2857 10.962 16.2857C14.011 16.2857 16.6361 14.5273 17.8162 12H19.7218ZM2.27818 6C3.55326 2.50442 6.99377 0 11.038 0C14.0305 0 16.6926 1.37132 18.3913 3.50082C18.9881 4.24899 19.466 5.09074 19.7975 5.99949C19.9486 6.4136 20.0693 6.84163 20.157 7.28106C20.1783 7.38776 20.1977 7.49514 20.2151 7.60315C20.2237 7.65673 20.2364 7.71429 20.2364 7.71429H22L19.4323 10.2857L16.679 7.71429H18.4416C17.8178 4.3072 14.7404 1.71429 11.038 1.71429C7.98899 1.71429 5.36389 3.47269 4.18384 6H2.27818Z"/>
  </symbol>

  <symbol id="svg-icons-map" width="16" height="20" viewBox="0 0 16 20" xmlns="http://www.w3.org/2000/svg">
    <path fill-rule="evenodd" clip-rule="evenodd" d="M12 8C12 10.206 10.206 12 8 12C5.794 12 4 10.206 4 8C4 5.794 5.794 4 8 4C10.206 4 12 5.794 12 8ZM10 8C10 6.897 9.103 6 8 6C6.897 6 6 6.897 6 8C6 9.103 6.897 10 8 10C9.103 10 10 9.103 10 8Z"/>
    <path fill-rule="evenodd" clip-rule="evenodd" d="M7.99997 19.9998C7.79199 19.9998 7.58921 19.9349 7.41997 19.814C7.11597 19.599 -0.0290341 14.44 -3.40323e-05 7.995C-3.40323e-05 3.589 3.58897 0 7.99997 0C12.411 0 16 3.589 16 8C16.029 14.44 8.88397 19.599 8.57997 19.814C8.41072 19.9349 8.20794 19.9998 7.99997 19.9998ZM14 8.005C14 4.691 11.309 2 7.99997 2C4.69097 2 1.99997 4.691 1.99997 8C1.97897 12.441 6.38897 16.427 7.99997 17.735C9.61197 16.428 14.021 12.443 14 8.005Z"/>
  </symbol>

  <symbol id="svg-icons-back" width="8" height="13" viewBox="0 0 8 13" xmlns="http://www.w3.org/2000/svg">
    <path d="M8 11.46L3.415 6.875L8 2.29L6.585 0.875L0.585001 6.875L6.585 12.875L8 11.46Z"/>
  </symbol>

  <symbol version="1.1" id="svg-icons-filter" xmlns="http://www.w3.org/2000/svg" xmlns:xlink="http://www.w3.org/1999/xlink" x="0px" y="0px"
  	 width="17" height="17" viewBox="0 0 402.577 402.577" style="enable-background:new 0 0 402.577 402.577;"
  	 xml:space="preserve">
    <g>
    	<path d="M400.858,11.427c-3.241-7.421-8.85-11.132-16.854-11.136H18.564c-7.993,0-13.61,3.715-16.846,11.136
    		c-3.234,7.801-1.903,14.467,3.999,19.985l140.757,140.753v138.755c0,4.955,1.809,9.232,5.424,12.854l73.085,73.083
    		c3.429,3.614,7.71,5.428,12.851,5.428c2.282,0,4.66-0.479,7.135-1.43c7.426-3.238,11.14-8.851,11.14-16.845V172.166L396.861,31.413
    		C402.765,25.895,404.093,19.231,400.858,11.427z"/>
    </g>
  </symbol>


</svg>
